<?xml version="1.0" standalone="no"?>
<!DOCTYPE svg PUBLIC "-//W3C//DTD SVG 20010904//EN"
 "http://www.w3.org/TR/2001/REC-SVG-20010904/DTD/svg10.dtd">
<svg version="1.0" xmlns="http://www.w3.org/2000/svg"
 width="192.000000pt" height="192.000000pt" viewBox="0 0 192.000000 192.000000"
 preserveAspectRatio="xMidYMid meet">
<metadata>
Created by potrace 1.14, written by Peter Selinger 2001-2017
</metadata>
<g transform="translate(0.000000,192.000000) scale(0.100000,-0.100000)"
fill="#000000" stroke="none">
<path d="M592 1769 c-7 -18 -5 -31 10 -51 10 -15 23 -30 29 -33 16 -11 4 74
-14 92 -15 15 -17 15 -25 -8z"/>
<path d="M1401 1746 c-23 -47 -25 -56 -12 -56 17 0 61 50 61 68 0 39 -28 32
-49 -12z"/>
<path d="M687 1773 c-13 -12 -7 -46 15 -89 33 -66 47 -56 43 30 -2 46 -15 65
-41 66 -6 0 -14 -3 -17 -7z"/>
<path d="M822 1753 c-20 -29 -47 -101 -40 -108 13 -13 74 36 87 68 24 64 -10
92 -47 40z"/>
<path d="M933 1763 c-31 -21 -29 -33 4 -27 35 7 43 12 43 30 0 18 -19 17 -47
-3z"/>
<path d="M1087 1762 c-8 -9 -19 -29 -22 -45 -6 -24 -5 -26 11 -20 24 9 43 33
44 55 0 25 -15 30 -33 10z"/>
<path d="M1209 1757 c-33 -21 -33 -21 -10 -25 14 -2 32 4 43 16 29 28 7 35
-33 9z"/>
<path d="M1489 1751 c-22 -19 -23 -20 -4 -21 11 -1 28 -3 39 -5 24 -5 68 15
63 29 -7 21 -72 18 -98 -3z"/>
<path d="M1320 1729 c-33 -13 -61 -40 -54 -51 8 -13 67 1 82 20 13 17 16 42 5
41 -5 0 -19 -5 -33 -10z"/>
<path d="M923 1689 c-30 -11 -29 -27 1 -35 24 -6 104 21 93 32 -10 10 -71 12
-94 3z"/>
<path d="M1457 1686 c-16 -13 -16 -14 8 -20 24 -6 65 11 65 26 0 13 -54 8 -73
-6z"/>
<path d="M1561 1673 c-23 -28 -35 -65 -29 -84 6 -18 68 52 68 77 0 34 -16 37
-39 7z"/>
<path d="M1106 1674 c-75 -27 -84 -54 -18 -54 39 0 125 37 126 55 1 15 -64 15
-108 -1z"/>
<path d="M601 1661 c-15 -10 -9 -46 12 -71 16 -21 77 -63 82 -58 8 8 -15 73
-33 93 -30 34 -47 44 -61 36z"/>
<path d="M1350 1626 c0 -34 68 -58 100 -35 13 8 12 12 -8 26 -32 23 -92 28
-92 9z"/>
<path d="M1220 1606 c0 -23 50 -56 86 -56 49 0 50 16 1 44 -48 29 -87 34 -87
12z"/>
<path d="M850 1595 c0 -45 56 -125 88 -125 16 0 12 53 -7 88 -22 42 -81 68
-81 37z"/>
<path d="M772 1551 c-36 -50 -54 -104 -46 -138 6 -24 32 -27 26 -4 -1 7 2 10
6 7 13 -8 45 30 37 43 -3 6 -2 11 4 11 14 0 22 50 13 90 l-8 35 -32 -44z m35
-43 c-3 -8 -6 -5 -6 6 -1 11 2 17 5 13 3 -3 4 -12 1 -19z"/>
<path d="M970 1567 c0 -23 53 -86 87 -102 33 -16 63 -15 63 3 0 20 -48 78 -75
91 -38 18 -75 22 -75 8z"/>
<path d="M1159 1563 c-2 -30 2 -77 7 -96 5 -14 9 -16 20 -7 19 17 28 74 15 99
-14 25 -41 28 -42 4z"/>
<path d="M1556 1558 c-18 -29 -31 -78 -20 -78 15 1 44 27 37 33 -3 4 -1 7 5 7
14 0 16 46 2 55 -5 3 -16 -5 -24 -17z"/>
<path d="M1461 1538 c-15 -24 -24 -155 -11 -163 12 -7 42 44 34 57 -4 7 -3 8
4 4 16 -10 20 46 7 102 -7 28 -16 28 -34 0z"/>
<path d="M587 1518 c-13 -52 9 -113 59 -163 43 -44 59 -36 49 24 -4 25 -20 56
-44 83 -21 24 -42 51 -48 62 -10 17 -11 17 -16 -6z"/>
<path d="M1348 1486 c-6 -29 13 -88 29 -93 14 -5 29 41 24 72 -7 46 -46 61
-53 21z"/>
<path d="M1245 1479 c-4 -10 -3 -29 0 -41 11 -34 55 -89 66 -83 14 9 11 73 -6
104 -18 36 -52 47 -60 20z"/>
<path d="M1537 1428 c-24 -33 -53 -105 -45 -114 6 -5 61 45 81 76 21 30 22 70
3 70 -8 0 -26 -15 -39 -32z"/>
<path d="M831 1418 c-10 -27 -6 -92 8 -115 8 -16 11 -14 21 12 16 42 19 76 9
103 -11 28 -27 28 -38 0z"/>
<path d="M1033 1403 c-38 -13 9 -78 65 -89 37 -8 41 3 15 47 -17 29 -57 50
-80 42z"/>
<path d="M1181 1391 c-21 -13 -6 -56 35 -96 20 -20 38 -34 41 -31 3 3 0 25 -7
50 -14 52 -48 89 -69 77z"/>
<path d="M930 1354 c0 -29 16 -64 30 -64 14 0 12 64 -2 78 -19 19 -28 14 -28
-14z"/>
<path d="M12 1212 c-9 -6 -10 -16 -3 -34 5 -14 8 -102 7 -197 -3 -189 -1 -199
55 -179 25 8 27 13 19 34 -12 31 -17 135 -7 151 5 8 47 11 135 10 l127 -2 0
-93 c1 -102 8 -115 54 -102 16 4 24 12 21 21 -3 8 -6 93 -7 189 -1 96 -2 183
-2 193 -1 11 -9 17 -25 17 -46 0 -55 -8 -45 -43 5 -18 9 -55 9 -83 l0 -51
-135 -1 -136 0 2 78 c1 43 -2 83 -5 89 -8 13 -45 14 -64 3z"/>
<path d="M529 1213 c-1 -4 -1 -71 0 -148 3 -152 11 -200 40 -233 24 -29 86
-49 138 -46 97 5 149 43 178 129 19 57 27 222 13 273 -7 27 -13 32 -38 32 -16
0 -31 -3 -34 -8 -2 -4 2 -31 10 -61 17 -66 12 -193 -9 -243 -20 -47 -54 -69
-110 -71 -103 -3 -122 33 -122 233 l0 145 -32 3 c-18 2 -34 0 -34 -5z"/>
<path d="M1008 1209 c-17 -9 -17 -12 -1 -35 19 -30 25 -206 10 -284 -14 -72
-13 -82 9 -90 45 -17 49 -2 46 162 l-3 153 156 -163 c118 -122 160 -160 172
-154 12 7 15 42 17 198 1 104 0 197 -2 207 -3 11 -14 17 -33 17 -34 0 -43 -13
-28 -41 13 -25 21 -267 9 -274 -4 -3 -54 46 -111 107 -207 224 -202 220 -241
197z"/>
<path d="M1655 1206 c-16 -12 -17 -16 -6 -29 10 -13 -1 -42 -75 -186 -76 -147
-86 -172 -74 -186 19 -23 52 -15 57 13 1 13 12 43 23 66 l19 43 85 1 85 1 16
-43 c9 -23 27 -55 39 -71 21 -26 26 -28 49 -18 l26 12 -49 93 c-26 51 -65 134
-86 183 -34 82 -67 135 -84 135 -3 0 -15 -6 -25 -14z m66 -162 c16 -37 28 -69
25 -71 -2 -2 -30 -3 -63 -1 l-60 3 31 68 c17 37 32 67 34 67 1 0 16 -30 33
-66z"/>
<path d="M1316 753 c-12 -13 -6 -64 9 -69 21 -8 47 15 43 39 -3 20 -41 41 -52
30z m44 -32 c0 -10 -7 -22 -16 -25 -23 -9 -24 -8 -24 19 0 18 5 25 20 25 13 0
20 -7 20 -19z"/>
<path d="M1452 744 c-28 -19 -28 -40 -1 -54 26 -14 49 -6 48 17 -1 17 -2 17
-6 1 -5 -21 -24 -23 -41 -6 -18 18 -15 26 16 42 15 8 22 15 17 16 -6 0 -21 -7
-33 -16z"/>
<path d="M1568 748 c-9 -5 -9 -8 -1 -8 6 0 14 -15 16 -32 l4 -33 1 33 c1 17 7
32 12 32 6 0 10 4 10 8 0 11 -25 11 -42 0z"/>
<path d="M1396 718 c6 -45 14 -48 14 -5 0 21 -4 37 -9 37 -4 0 -7 -14 -5 -32z"/>
<path d="M1523 713 c-2 -27 1 -33 7 -23 12 18 13 60 3 60 -5 0 -9 -17 -10 -37z"/>
<path d="M1640 742 c0 -4 6 -14 13 -21 10 -10 9 -11 -4 -6 -16 6 -36 -21 -24
-33 3 -3 5 0 5 6 0 7 9 12 20 12 11 0 20 -5 20 -12 0 -6 2 -9 5 -6 8 7 -16 68
-26 68 -5 0 -9 -4 -9 -8z"/>
<path d="M1705 718 c0 -23 5 -34 18 -36 9 -2 17 1 17 7 0 6 -6 10 -12 9 -8 -2
-12 7 -10 25 2 15 0 27 -5 27 -4 0 -8 -15 -8 -32z"/>
<path d="M916 631 c-15 -23 44 -126 68 -118 16 5 16 39 0 66 -19 32 -61 64
-68 52z"/>
<path d="M1204 596 c-7 -30 3 -57 24 -64 17 -5 15 50 -2 74 -14 18 -15 18 -22
-10z"/>
<path d="M1318 615 c-5 -10 -21 -69 -23 -90 -2 -15 17 -55 26 -55 13 0 29 37
29 67 -1 34 -24 91 -32 78z"/>
<path d="M1040 595 c0 -4 7 -22 15 -40 19 -39 58 -60 86 -45 21 12 16 32 -18
61 -19 18 -83 35 -83 24z"/>
<path d="M1477 573 c-22 -21 8 -89 63 -143 17 -16 30 -34 30 -40 0 -6 5 -8 10
-5 27 17 0 113 -44 160 -33 35 -46 41 -59 28z"/>
<path d="M614 524 c-34 -35 -45 -74 -21 -74 14 0 52 53 62 88 9 31 -2 28 -41
-14z"/>
<path d="M857 543 c-4 -3 -7 -21 -7 -39 0 -41 39 -90 63 -81 19 7 23 47 6 47
-6 0 -9 7 -5 15 3 8 -2 18 -10 23 -9 5 -15 12 -15 15 3 20 0 27 -12 27 -8 0
-17 -3 -20 -7z"/>
<path d="M692 501 c-21 -38 -28 -93 -16 -125 9 -22 21 -20 35 7 14 25 23 157
11 157 -5 0 -18 -17 -30 -39z"/>
<path d="M782 508 c-28 -28 -2 -116 32 -105 16 5 12 75 -7 100 -10 14 -15 15
-25 5z"/>
<path d="M1398 493 c-26 -28 -45 -76 -43 -103 1 -8 3 -25 3 -37 3 -34 13 -28
50 25 35 51 47 92 37 123 -8 26 -17 24 -47 -8z"/>
<path d="M980 445 c-16 -19 -17 -92 -2 -107 12 -12 35 -1 27 12 -3 5 -1 11 4
14 11 7 5 76 -7 88 -5 5 -15 2 -22 -7z"/>
<path d="M1056 452 c-11 -19 28 -72 68 -92 77 -37 96 -23 50 37 -36 47 -103
79 -118 55z"/>
<path d="M622 433 c-17 -7 -45 -62 -38 -79 8 -20 32 -7 46 26 14 34 10 59 -8
53z"/>
<path d="M1223 411 c9 -56 44 -100 80 -101 20 0 22 17 6 57 -14 38 -48 73 -71
73 -15 0 -18 -6 -15 -29z"/>
<path d="M1470 376 c0 -9 31 -73 44 -89 7 -10 27 -22 44 -26 27 -8 30 -7 27
10 -7 36 -39 79 -71 94 -32 15 -44 18 -44 11z"/>
<path d="M836 363 c-3 -4 -6 -10 -6 -15 0 -12 101 -58 112 -52 14 9 9 30 -11
48 -19 18 -84 30 -95 19z"/>
<path d="M727 332 c-10 -2 -16 -9 -14 -15 5 -17 81 -42 102 -33 18 7 18 7 -1
26 -20 20 -57 29 -87 22z"/>
<path d="M596 299 c-26 -31 -34 -63 -17 -73 9 -6 61 49 61 64 0 5 3 15 6 24
11 28 -23 18 -50 -15z"/>
<path d="M1025 287 c-58 -23 -79 -38 -64 -47 28 -18 169 16 169 40 0 21 -59
25 -105 7z"/>
<path d="M1429 243 c-2 -60 1 -77 18 -90 23 -18 44 -5 40 26 -4 33 -36 101
-48 101 -5 0 -10 -17 -10 -37z"/>
<path d="M1181 254 c-18 -8 -32 -17 -30 -19 12 -11 75 -12 101 0 30 12 31 13
10 24 -26 14 -39 13 -81 -5z"/>
<path d="M1350 263 c-34 -10 -69 -85 -51 -112 14 -21 46 3 70 52 31 64 28 74
-19 60z"/>
<path d="M653 245 c-10 -7 -15 -17 -10 -21 9 -9 78 8 80 20 3 15 -50 15 -70 1z"/>
<path d="M830 228 c-28 -26 -27 -51 3 -43 28 8 72 39 72 51 0 17 -54 11 -75
-8z"/>
<path d="M746 207 c-24 -19 -28 -28 -22 -50 9 -38 21 -34 45 18 30 65 26 71
-23 32z"/>
<path d="M1072 210 c-25 -24 -29 -60 -7 -60 8 0 21 13 30 30 27 52 16 66 -23
30z"/>
<path d="M1530 208 c0 -26 21 -71 33 -69 4 0 7 4 6 7 0 4 5 10 12 15 11 6 9
14 -7 35 -27 37 -44 41 -44 12z"/>
<path d="M603 188 c-30 -15 -29 -26 3 -34 26 -7 102 21 91 32 -11 12 -73 13
-94 2z"/>
<path d="M964 192 c-12 -2 -30 -12 -40 -23 -16 -18 -16 -19 3 -19 21 0 73 35
63 42 -3 2 -15 2 -26 0z"/>
<path d="M1208 179 c-17 -9 -25 -39 -12 -39 12 0 64 34 64 42 0 11 -32 9 -52
-3z"/>
</g>
</svg>
